<?xml version="1.0" standalone="no"?>
<!DOCTYPE svg PUBLIC "-//W3C//DTD SVG 20010904//EN"
 "http://www.w3.org/TR/2001/REC-SVG-20010904/DTD/svg10.dtd">
<svg version="1.0" xmlns="http://www.w3.org/2000/svg"
 width="128.000000pt" height="128.000000pt" viewBox="0 0 128.000000 128.000000"
 preserveAspectRatio="xMidYMid meet">
<metadata>
Created by potrace 1.11, written by Peter Selinger 2001-2013
</metadata>
<g transform="translate(0.000000,128.000000) scale(0.100000,-0.100000)"
fill="#000000" stroke="none">
<path d="M460 1032 c-51 -23 -88 -71 -95 -123 -2 -19 -10 -36 -17 -38 -6 -2
-29 -20 -50 -40 -27 -26 -39 -47 -44 -77 l-6 -40 53 -12 c50 -12 54 -11 78 12
80 74 172 78 274 12 22 -15 27 -16 27 -4 0 24 83 102 133 126 26 12 47 26 47
30 0 20 -36 56 -72 72 -39 17 -73 19 -113 6 -16 -4 -25 1 -38 23 -29 49 -123
77 -177 53z"/>
<path d="M865 833 c-11 -2 -40 -18 -65 -35 -171 -114 -155 -362 30 -455 50
-25 172 -25 224 1 192 95 193 372 2 469 -46 23 -138 33 -191 20z"/>
<path d="M448 717 c-23 -12 -52 -36 -63 -53 l-20 -30 -30 18 c-82 49 -190 -9
-198 -107 -3 -33 -8 -40 -33 -47 -34 -9 -63 -44 -64 -75 l0 -23 330 0 329 0
-26 53 c-23 44 -27 65 -27 141 -1 87 -1 89 -33 113 -44 34 -109 38 -165 10z"/>
</g>
</svg>
